# xmcd
#
# Track frame offsets: 
#        150
#        15960
#        25237
#        56834
#        77861
#        102626
#        121839
#        140591
#        172705
#        190295
#        211587
#        237862
#        254674
#        265777
#        285252
#        294077
#        305677
#
# Disc length: 4402 seconds
#
# Revision: 0
# Processed by: cddbd v1.4PL0 Copyright (c) Steve Scherf et al.
# Submitted via: ExactAudioCopy v0.95a3
#
DISCID=e6113011
DTITLE=Ten Years After - Star Profile
DYEAR=2000
DGENRE=Blues
TTITLE0=Bad Scene
TTITLE1=Two Time Mama
TTITLE2=Good Morning Little Schoolgirl
TTITLE3=The Stomp
TTITLE4=I Woke Up This Morning
TTITLE5=Working On The Road
TTITLE6=Me And My Baby
TTITLE7=50,000 Miles Beneath My Brain
TTITLE8=Circles
TTITLE9=As The Sun Still Burns Away
TTITLE10=One Of These Days
TTITLE11=I'd Love To Change The World
TTITLE12=Over The Hill
TTITLE13=Let The Sky Fall
TTITLE14=Uncle Jam
TTITLE15=Don't Want You Woman
TTITLE16=I Woke Up This Morning (Remixed)
EXTD=
EXTT0=
EXTT1=
EXTT2=
EXTT3=
EXTT4=
EXTT5=
EXTT6=
EXTT7=
EXTT8=
EXTT9=
EXTT10=
EXTT11=
EXTT12=
EXTT13=
EXTT14=
EXTT15=
EXTT16=
PLAYORDER=
